<?xml version="1.0" standalone="no"?><!DOCTYPE svg PUBLIC "-//W3C//DTD SVG 1.1//EN" "http://www.w3.org/Graphics/SVG/1.1/DTD/svg11.dtd"><svg t="1773755859378" class="icon" viewBox="0 0 1024 1024" version="1.1" xmlns="http://www.w3.org/2000/svg" p-id="7026" xmlns:xlink="http://www.w3.org/1999/xlink" width="200" height="200"><path d="M234.6 893.3l-50.4-50.4 70-97.7 312.3-279 44.8 44.8-280.9 311.7z" fill="#D9E8C8" p-id="7027"></path><path d="M566.5 466.2l44.8 44.8-280.9 311.7-95.8 70.6-50.4-50.4 70-97.7 312.3-279m0-20c-4.8 0-9.5 1.7-13.3 5.1l-312.4 279c-1.1 1-2.1 2.1-2.9 3.3l-70 97.7c-5.7 8-4.8 18.9 2.1 25.8l50.4 50.4c3.9 3.9 9 5.9 14.1 5.9 4.1 0 8.3-1.3 11.9-3.9l95.8-70.6c1.1-0.8 2.1-1.7 3-2.7l280.9-311.8c7.1-7.9 6.8-20-0.7-27.5l-44.8-44.8c-3.8-3.9-8.9-5.9-14.1-5.9z" fill="#1A1A1A" p-id="7028"></path><path d="M234.6 893.3l-22.2-22.1 385.7-373.5 13.2 13.3-280.9 311.7z" fill="#ADBC99" p-id="7029"></path><path d="M534.2 517.5s43.3-73.2 58.3-90.9c15-17.8 43.9-23 43.9-23s49.2-30 69.6-42.5c19-11.6 34.3 9.8 34.3 9.8s49.8-1.3 88.4-1.9c38.6-0.6 95.4 51.5 95.4 51.5s-29.2 19.3-49.3 26.2l-43.7 15s19.1 19.1 14.3 36.2c-4.8 17.1-95 22.4-95 22.4s13.7 36.9-2.7 46.4S571 554.3 571 554.3l-36.8-36.8z" fill="#A3DA67" p-id="7030"></path><path d="M717.6 357.6c13.3 0 22.8 13.2 22.8 13.2s49.8-1.3 88.4-1.9h0.7c38.6 0 94.7 51.5 94.7 51.5s-29.2 19.3-49.3 26.2l-43.7 15s19.1 19.1 14.3 36.2c-4.8 17.1-95 22.4-95 22.4s13.7 36.9-2.7 46.4c-2.9 1.7-10.4 2.4-20.8 2.4-47.7 0-155.9-14.9-155.9-14.9l-36.9-36.9s43.3-73.2 58.3-90.9c15-17.8 43.9-23 43.9-23s49.2-30 69.6-42.5c4.1-2.2 8-3.2 11.6-3.2m0-20c-7.6 0-15 2.1-22 6.4-17.4 10.6-55.8 34.1-66.7 40.7-10.1 2.4-35.7 10-51.7 28.9-15.7 18.5-55.8 86-60.3 93.7l-7.9 13.4 11 11 36.9 36.9 4.8 4.8 6.7 0.9c4.5 0.6 110.1 15 158.6 15 15.9 0 24.5-1.4 30.9-5.1 6.1-3.5 13.9-10.6 16.8-24.4 1.3-6.2 1.5-13.4 0.6-21.4 7.2-0.8 15.5-1.7 24-3 14.5-2.2 26.4-4.7 35.5-7.6 11-3.5 26-9.8 30.1-24.4 3.1-11.1 1-21.9-2.8-31l19.5-6.7c21.9-7.5 50.7-26.4 53.9-28.5l21.3-14.1-18.9-17.3c-0.6-0.6-15.3-14-35.1-27.5-28.4-19.4-53-29.2-73.1-29.2h-1c-28.6 0.5-63.6 1.3-79.7 1.7-7-6.2-17.7-13.2-31.4-13.2z" fill="#1A1A1A" p-id="7031"></path><path d="M687.5 514.7c43-25.2 105.8-64.1 130.4-80.6 24.6-16.5 74.3-38.9 79.9-34.9 15.5 11.2 26.4 21.2 26.4 21.2s-29.2 19.3-49.3 26.2l-43.7 15s19.1 19.1 14.3 36.2c-4.8 17.1-95 22.4-95 22.4s13.7 36.9-2.7 46.4c-11.1 6.5-87.8-1.5-136.5-7.3-23.4-2.6 33.3-19.4 76.2-44.6z" fill="#58A352" p-id="7032"></path><path d="M558.8 542.1s73.2-43.3 90.9-58.3 23-43.9 23-43.9 30-49.2 42.5-69.6c11.6-19-9.8-34.3-9.8-34.3s1.3-49.8 1.9-88.4c0.6-38.6-51.5-95.4-51.5-95.4s-19.3 29.2-26.2 49.3l-15 43.7s-19.1-19.1-36.2-14.3c-17.1 4.8-22.4 95-22.4 95s-36.9-13.7-46.4 2.7C500 345 522 505.3 522 505.3l36.8 36.8z" fill="#A3DA67" p-id="7033"></path><path d="M655.8 152s52.1 56.8 51.5 95.4-1.9 88.4-1.9 88.4 21.3 15.4 9.8 34.3c-12.4 20.4-42.5 69.6-42.5 69.6s-5.2 28.9-23 43.9-90.9 58.3-90.9 58.3L521.9 505s-22-160.3-12.4-176.7c3.6-6.1 11-8.1 18.9-8.1 13.1 0 27.5 5.3 27.5 5.3s5.4-90.3 22.4-95c1.9-0.5 3.8-0.8 5.7-0.8 15.3 0 30.5 15.1 30.5 15.1l15-43.7c6.9-20.1 26.3-49.1 26.3-49.1m-2.5-32.4L639.2 141c-2.1 3.2-20.9 31.9-28.5 53.9l-6.7 19.4c-6-2.5-12.8-4.3-19.9-4.3-3.8 0-7.6 0.5-11.1 1.5-14.6 4.1-20.9 19.1-24.4 30.1-2.9 9.1-5.5 21-7.6 35.5-1.3 8.4-2.3 16.7-3 24-3.1-0.4-6.4-0.6-9.6-0.6-22.3 0-32.3 11.3-36.2 18-4 6.8-6 16.4-4.8 45.4 0.7 15.7 2.3 36.3 4.8 61.2 4.3 42 9.8 82.5 9.9 82.9l0.9 6.7 4.8 4.8 36.9 36.9 11 11 13.4-7.9c7.6-4.5 75.2-44.6 93.7-60.3 18.9-16 26.5-41.6 28.9-51.7 6.6-10.9 30.1-49.3 40.7-66.7 8.7-14.2 8.4-30.8-0.7-45.3-1.9-3-4-5.7-6-7.9 0.4-16.1 1.2-51.1 1.7-79.7 0.3-20.2-9.4-45-29-73.8-13.6-20-27.2-34.9-27.8-35.5l-17.3-19z" fill="#1A1A1A" p-id="7034"></path><path d="M558.8 542.1s73.2-43.3 90.9-58.3 23-43.9 23-43.9 30-49.2 42.5-69.6c11.6-19-9.8-34.3-9.8-34.3s1.3-49.8 1.9-88.4c0.3-15.7-8.2-34.4-18.4-51.1 10.1 46.6-35.9 78.9-35.9 78.9s-24.5-7.5-47.2 9c-21.1 15.3-46.8 62.8-46.8 62.8s-15.8 5.2-27.7 10.6-23.6 22.9-19.3 64.8c4.3 42.3 9.9 82.7 9.9 82.7l36.9 36.8z" fill="#58A352" p-id="7035"></path><path d="M563.5 560.6s111-11.4 122.9-24.1 8-41.1 10.5-46.3 66.9-28.7 71.7-45.8c4.8-17.1-19.8-29.9-20-36.2s32.5-13.9 42.8-24c10.3-10.1 61.4-116 61.4-116S701.1 258.1 682 282.9s-13 36.6-18.7 40.4c-5.7 3.8-20.8-27.2-39.8-15.6-20.4 12.4-46.2 65.8-46.2 65.8s-28.9 5.2-43.9 23-15.6 118.3-15.6 118.3l45.7 45.8z" fill="#A3DA67" p-id="7036"></path><path d="M786.2 266.2c35.7 0 66.7 2.1 66.7 2.1s-51.2 106-61.4 116c-10.3 10.1-43 17.7-42.8 24s24.8 19.1 20 36.2c-4.8 17.1-69.3 40.6-71.7 45.8s1.4 33.6-10.5 46.3c-11.9 12.7-122.9 24.1-122.9 24.1l-45.9-45.9s0.6-100.5 15.6-118.3c15-17.8 43.9-23 43.9-23s25.9-53.3 46.2-65.8c3-1.8 5.9-2.6 8.7-2.6 13.8 0 24.7 18.5 30 18.5 0.4 0 0.8-0.1 1.1-0.3 5.7-3.8-0.4-15.6 18.7-40.4 10.6-13.6 60.9-16.7 104.3-16.7m0-20v20-20c-26.8 0-49.3 1.1-67 3.4-28.3 3.6-44.6 10.1-53.1 21.1-6 7.8-10.1 14.8-12.8 20.8-5.9-3.6-12.9-6.4-21.1-6.4-6.7 0-13.1 1.9-19.2 5.5-11.4 6.9-23.6 21.4-37.5 44.3-4.9 8.2-9.1 15.8-12 21.4-12.1 3.6-32.2 11.5-45.5 27.3-6.7 7.9-14.1 23.3-18.1 77.2-2.1 27.7-2.2 52.8-2.2 53.8l-0.1 8.4 5.9 5.9 45.9 45.9 6.7 6.7 9.5-1c1.2-0.1 28.6-2.9 57.9-7.4 60.3-9.1 71.3-16.3 77.5-22.9 13.1-13.9 14.2-35.1 14.7-48.2 2.8-1.4 6.2-3.1 9.3-4.5 10.3-5 23.2-11.2 34.2-17.8 17.2-10.4 25.8-19.3 28.7-29.8 2-7.2 2.8-18.5-5.1-31.2-1.1-1.7-2.2-3.3-3.4-4.8 9.8-4.2 19.3-8.7 26-15.2 3.3-3.2 8.8-8.6 38.4-67 14-27.6 26.9-54.3 27-54.6l12.9-26.7-29.5-2c-1.3-0.1-32.1-2.2-68-2.2z" fill="#1A1A1A" p-id="7037"></path><path d="M551.3 578.7s123.2-29.4 135.1-42.1 8-41.1 10.5-46.3 66.9-28.7 71.7-45.8c4.8-17.1-19.8-29.9-20-36.2s32.5-13.9 42.8-24c10.3-10.1 61.4-116 61.4-116S701.1 258.1 682 282.9s-13 36.6-18.7 40.4c-5.7 3.8-20.8-27.2-39.8-15.6-20.4 12.4-46.2 65.8-46.2 65.8s-28.9 5.2-43.9 23-33.9 130.3-33.9 130.3l51.8 51.9z" fill="#A3DA67" p-id="7038"></path><path d="M551.2 578.7s123.3-29.4 135.2-42.1 8-41.1 10.5-46.3 66.9-28.7 71.7-45.8c4.8-17.1-19.8-29.9-20-36.2s32.5-13.9 42.8-24c10.3-10.1 61.4-116 61.4-116S781 329.6 729.2 393.9c-44.5 55.3-80.7 85.8-105.5 108.3-24.8 22.5-86.6 62.3-86.6 62.3l14.1 14.2z" fill="#58A352" p-id="7039"></path><path d="M662.3 417.6L555.1 524.7" fill="#A3DA67" p-id="7040"></path><path d="M555.1 534.7c-2.6 0-5.1-1-7.1-2.9-3.9-3.9-3.9-10.2 0-14.1l107.2-107.2c3.9-3.9 10.2-3.9 14.1 0 3.9 3.9 3.9 10.2 0 14.1L562.2 531.8c-2 2-4.5 2.9-7.1 2.9z" fill="#1A1A1A" p-id="7041"></path><path d="M306.6 776.2l33.1 33.1" fill="#A3DA67" p-id="7042"></path><path d="M339.7 819.3c-2.6 0-5.1-1-7.1-2.9l-33.1-33.1c-3.9-3.9-3.9-10.2 0-14.1 3.9-3.9 10.2-3.9 14.1 0l33.1 33.1c3.9 3.9 3.9 10.2 0 14.1-1.9 1.9-4.4 2.9-7 2.9z" fill="#1A1A1A" p-id="7043"></path><path d="M212.4 813.2l11.3 11.3" fill="#A3DA67" p-id="7044"></path><path d="M223.7 834.5c-2.6 0-5.1-1-7.1-2.9l-11.3-11.3c-3.9-3.9-3.9-10.2 0-14.1 3.9-3.9 10.2-3.9 14.1 0l11.3 11.3c3.9 3.9 3.9 10.2 0 14.1-1.8 1.9-4.4 2.9-7 2.9z" fill="#1A1A1A" p-id="7045"></path><path d="M303.9 719.3l11 11" fill="#A3DA67" p-id="7046"></path><path d="M314.9 740.3c-2.6 0-5.1-1-7.1-2.9l-11-11c-3.9-3.9-3.9-10.2 0-14.1 3.9-3.9 10.2-3.9 14.1 0l11 11c3.9 3.9 3.9 10.2 0 14.1-1.8 1.9-4.4 2.9-7 2.9z" fill="#1A1A1A" p-id="7047"></path><path d="M232.2 765.5l40.4 40.3" fill="#A3DA67" p-id="7048"></path><path d="M272.6 815.8c-2.6 0-5.1-1-7.1-2.9l-40.4-40.4c-3.9-3.9-3.9-10.2 0-14.1 3.9-3.9 10.2-3.9 14.1 0l40.4 40.4c3.9 3.9 3.9 10.2 0 14.1-1.9 1.9-4.5 2.9-7 2.9z" fill="#1A1A1A" p-id="7049"></path></svg>